# xmcd
#
# Track frame offsets:
# 150
# 12846
# 24288
# 36514
# 47486
# 58771
# 68959
# 82595
# 92783
# 102187
# 113002
# 123504
# 134162
# 144664
# 158770
# 169272
# 181184
# 191215
# 201246
# 211748
# 222093
# 232908
# 243566
# 255792
# 267234
# 276638
# 286199
# 296701
# 307203
# 320683
# 331655
# 345310
#
# Disc length: 4754 seconds
#
#
# Revision: 0
# Processed by: cddbd v1.5.1PL0 Copyright (c) Steve Scherf et al.
# Submitted via: FreeRIP 2.942 
#
DISCID=db129020
DTITLE=Stafford Sound's By Kit
DYEAR=1900
DGENRE=
TTITLE0=Gordon Keith - Look Ahead
TTITLE1=Bill Bush - I'm Waiting
TTITLE2=Freddie and The Turnbines - Bernadine
TTITLE3=Micheal Christian - If I Can't Have You
TTITLE4=Conquistadors - Lonely Was I
TTITLE5=Del Chontays - Baby I Need You
TTITLE6=Tommy Ridgley - My Love Gets Stronger
TTITLE7=June Jackson - You're Welcome
TTITLE8=Outasites - For The Rest Of My Life
TTITLE9=Hytones - You Don't Even Know My Name
TTITLE10=Esther Grant - Let's Make The Most Out Of Love
TTITLE11=Al Hughes - Take It Or Leave It
TTITLE12=Four  Reputations /Call On Me
TTITLE13=Ringleaders - All Of My Life
TTITLE14=Timmie Williams - Competition
TTITLE15=Gerrie Diamond - Only You
TTITLE16=Kell Osbourne - Law Against A Heartbreaker
TTITLE17=Groovettes and The Bob Reed Orch - Think It Over Baby
TTITLE18=Satisfactions - Take It Or Leave It
TTITLE19=Ted Wilson - I Can't Take No More
TTITLE20=James Lately - Love, Friends and Money
TTITLE21=Sidells - Pushed Out Of The Picture
TTITLE22=Ted Wilson - My Aim Is To Please
TTITLE23=Descrescendo's - One Of The Crowd
TTITLE24=Ralph Graham - She Just Sit's There
TTITLE25=Ray Marchand - Your Ship Of FAOOLS
TTITLE26=Startones - Lovin'You Baby
TTITLE27=Sonatas - Going Down The Road
TTITLE28=Little Nicky Soul - I Wanted To Tell You
TTITLE29=Two Plus Two - Love Will Conquer All
TTITLE30=Billy Lee Riley - Happy Man
TTITLE31=Juan Williams - I Check The Mail
EXTD=
EXTT0=
EXTT1=
EXTT2=
EXTT3=
EXTT4=
EXTT5=
EXTT6=
EXTT7=
EXTT8=
EXTT9=
EXTT10=
EXTT11=
EXTT12=
EXTT13=
EXTT14=
EXTT15=
EXTT16=
EXTT17=
EXTT18=
EXTT19=
EXTT20=
EXTT21=
EXTT22=
EXTT23=
EXTT24=
EXTT25=
EXTT26=
EXTT27=
EXTT28=
EXTT29=
EXTT30=
EXTT31=
PLAYORDER=
